<svg xmlns="http://www.w3.org/2000/svg" width="15.733" height="18.88" viewBox="0 0 15.733 18.88">
  <g id="bell" transform="translate(-2)">
    <path id="Path_138" data-name="Path 138" d="M17.245,13.3a5.269,5.269,0,0,1-1.871-4.032V7.08a5.511,5.511,0,0,0-4.72-5.444V.787a.787.787,0,0,0-1.573,0v.85A5.51,5.51,0,0,0,4.36,7.08V9.273a5.275,5.275,0,0,1-1.879,4.038,1.376,1.376,0,0,0,.9,2.422h12.98a1.377,1.377,0,0,0,.888-2.428Z" fill="#9e9e9e"/>
    <path id="Path_139" data-name="Path 139" d="M11.216,23.36A2.955,2.955,0,0,0,14.106,21H8.326A2.955,2.955,0,0,0,11.216,23.36Z" transform="translate(-1.35 -4.48)" fill="#9e9e9e"/>
  </g>
</svg>
