<svg xmlns="http://www.w3.org/2000/svg" xmlns:xlink="http://www.w3.org/1999/xlink" width="445" height="334" xmlns:v="https://vecta.io/nano"><style><![CDATA[.g{opacity:.25}.h{fill:#f7af93}.i{fill:#fff}.j{fill:#d67c67}.k{fill:#c67463}.l{fill:#de957e}.m{fill:#e69a82}]]></style><path d="M226.6 313.6a14.3 14.3 0 0 1-14.3 14.3H71.5a14.3 14.3 0 0 1-14.3-14.3V32.1a14.3 14.3 0 0 1 14.3-14.3h140.8a14.3 14.3 0 0 1 14.3 14.3v281.5z" fill="#424e60"/><path d="M62.9 41.8h157.9v252.9H62.9z" class="i"/><path d="M168.8 31.1c0 .8-1 1.5-2.2 1.5h-44.2c-1.2 0-2.2-.7-2.2-1.5v-.4c0-.8 1-1.5 2.2-1.5h44.2c1.2 0 2.2.7 2.2 1.5v.4z" fill="#7c7c7c"/><path d="M430.3 330.2h-412c-.5 0-.9-.4-.9-.9s.4-.9.9-.9h412c.5 0 .9.4.9.9s-.4.9-.9.9z" fill="#d3d3d3"/><path d="M209.4 257.4c0 8.6-7 15.6-15.6 15.6H90.6C82 273 75 266 75 257.4v-.3c0-8.6 7-15.6 15.6-15.6h103.3c8.6 0 15.6 7 15.6 15.6v.3zm-16.6-68.5c0 .9-.8 1.7-1.7 1.7h-95c-.9 0-1.7-.8-1.7-1.7h0c0-.9.8-1.7 1.7-1.7h95c1-.1 1.7.7 1.7 1.7h0zM182 199.7c0 .7-.6 1.1-1.3 1.1h-74c-.7 0-1.3-.5-1.3-1.1h0c0-.7.6-1.1 1.3-1.1h74c.7 0 1.3.5 1.3 1.1h0zm10.8 10.9c0 .9-.8 1.7-1.7 1.7h-95c-.9 0-1.7-.8-1.7-1.7h0c0-.9.8-1.7 1.7-1.7h95c1 0 1.7.8 1.7 1.7h0zM182 221.5c0 .7-.6 1.1-1.3 1.1h-74c-.7 0-1.3-.5-1.3-1.1h0c0-.7.6-1.1 1.3-1.1h74c.7-.1 1.3.4 1.3 1.1h0z" opacity=".4" fill="#d6d6d9"/><path d="M197.4 146.8c0 4.6-3.1 8.3-7.2 8.3H90.7c-4.1 0-7.8-3.7-7.8-8.3v-45.7c0-4.6 3.6-8.3 7.8-8.3h99.4c4.1 0 7.2 3.7 7.2 8.3v45.7z" fill="#79c680"/><g class="i"><use xlink:href="#B"/><use xlink:href="#B" x="15.4"/><use xlink:href="#B" x="30.8"/><use xlink:href="#B" x="46.2"/><path d="M135.3 113.8c0 7.1-4.4 11.2-10.4 11.2-6.1 0-10-4.6-10-10.8 0-6.5 4.2-11.1 10.3-11.1 6.4 0 10.1 4.7 10.1 10.7zm-16.1.4c0 4.3 2.2 7.8 6 7.8s6-3.5 6-7.9c0-4-2-7.8-6-7.8-4-.1-6 3.5-6 7.9zm22.8-7.5h-6.2v-3.2h16.3v3.2h-6.2v18H142v-18zm12.7-3c1.4-.3 3.4-.4 6-.4 2.9 0 5 .6 6.4 1.7 1.3 1 2.1 2.7 2.1 4.7s-.6 3.7-1.9 4.8c-1.6 1.5-4 2.3-6.8 2.3-.7 0-1.4 0-1.9-.1v8h-3.9v-21zm3.9 9.9c.5.1 1.1.2 1.9.2 3 0 4.8-1.4 4.8-3.9 0-2.4-1.7-3.6-4.4-3.6-1.1 0-1.9.1-2.3.2v7.1z"/></g><circle cx="145.3" cy="311.7" r="8.1" fill="#424e60"/><path d="M145.3 320.5a8.71 8.71 0 0 1-8.7-8.7 8.71 8.71 0 0 1 8.7-8.7 8.71 8.71 0 0 1 8.7 8.7c0 4.7-3.9 8.7-8.7 8.7zm0-16.2c-4.1 0-7.4 3.3-7.4 7.4s3.3 7.4 7.4 7.4 7.4-3.3 7.4-7.4c.1-4-3.3-7.4-7.4-7.4z" fill="#777"/><path d="M182.2 328.9c0 1.5 46.4 2.8 103.6 2.8s103.6-1.2 103.6-2.8c0-1.5-46.4-2.8-103.6-2.8s-103.6 1.3-103.6 2.8z" fill="#d3d3d3"/><g class="j"><path d="M205.6 328.9h-5.3l-1.6-8.8h8.5z"/><path d="M207.2 320.1h-8.5l.2 1.2c3.4 0 6 3 5.4 6.3l-.2 1.2h1.5l1.6-8.7z" class="g"/><use xlink:href="#C"/><use xlink:href="#D"/><path d="M272.1 328.9h-5.3l-1.6-8.8h8.5z"/><path d="M273.7 320.1h-8.5l.2 1.2c3.4 0 6 3 5.4 6.3l-.2 1.2h1.5l1.6-8.7z" class="g"/></g><use xlink:href="#E" class="k"/><path d="M250.4 206.5h104.4v92.7H248.5c-2.7 0-4.8-2.1-4.8-4.8V213a6.73 6.73 0 0 1 6.7-6.5z" class="j"/><path d="M345.2 299.2h19.4c2.3 0 4.1-1.8 4.1-4.1V212c0-3.1-2.5-5.5-5.6-5.5h-16.4c-3.1 0-5.6 2.5-5.6 5.5v83.1c0 2.3 1.8 4.1 4.1 4.1z" class="k"/><path d="M263.9 320.1h70.6a3.84 3.84 0 0 0 3.9-3.9v-37.5c0-2.1-1.8-3.9-3.9-3.9h-70.6a3.84 3.84 0 0 0-3.9 3.9v37.5a3.84 3.84 0 0 0 3.9 3.9z" fill="#f7603e"/><path d="M218.3 320.1h70.6a3.84 3.84 0 0 0 3.9-3.9v-37.5c0-2.1-1.8-3.9-3.9-3.9h-70.6a3.84 3.84 0 0 0-3.9 3.9v37.5c-.1 2.2 1.7 3.9 3.9 3.9z" class="j"/><g class="k"><path d="M338.5 278.4h-42.7c-3.4 0-6.2 2.7-6.2 6.1v35.6h48.9v-41.7zm-120-3.5h0a1.97 1.97 0 0 0 1.9 1.9h117.7c-.6-1.1-1.8-1.9-3.2-1.9H218.5z"/><path d="M245.9 276.8h19.3v43.4h-19.3zm-24 0h19.3v43.4h-19.3zm97.4-70.3l7.3 28.9c1.4 5.3-1.2 10.8-6.2 13.3l-7.4 3.6c-6.8 3.3-11.2 10.2-11.2 17.7h0c0 2.7-2.2 4.9-5 4.9h-61.3s25.2-31.4 25.2-48.6 5.3-19.8 5.3-19.8h53.3z"/></g><path d="M283.1 201.6l-26.7 32.3c-4.9 5.4-16.3-2.4-9.1-11.6 7.3-9.3 16.9-25.6 21.6-30.7 5.2-5.7 21.1 2.1 14.2 10z" class="i"/><path d="M256.4 233.8c2.4-2.7 15.3-18.4 22.3-26.8l-14.7-.2-3.7 10.8-3.9 5.4c-.6-2.9-2.3-6.9-3.2-8.9-2 2.9-4 5.7-5.9 8.1-7.3 9.3 4.2 17.1 9.1 11.6z" opacity=".1"/><path d="M244 232l-6.2-25.7c-.8-3.8 9.2-7.1 10.5-3l9.2 27.5c1 4.1-10.5 10.7-13.5 1.2z" class="i"/><path d="M232.6 191.7c3.4.6 5.6-.5 7.9 1.4s4.8 8.2 5.7 9.4c.8 1.2-.9 3.6-3.7 4.2s-8.2-3.4-8.2-3.4l-1.7-11.6z" class="l"/><path d="M226.8 176.2v.1l5.4 23.6v.1c.1.6.7 1 1.3 1h10.8c.5-.1.7-.5.6-1l-5.5-23.9c-.1-.6-.7-1-1.3-1h-10.6c-.5 0-.8.5-.7 1.1z" fill="#f0f"/><path d="M226.8 176.2v.1l5.4 23.6v.2a1.44 1.44 0 0 0 1.1.9h10.9c.5-.1.7-.5.6-1l-5.5-23.9c-.1-.6-.7-1-1.3-1h-10.6c-.4 0-.7.5-.6 1.1z" fill="#4d4d4d"/><path d="M227.3 175.8c-.4 0-.5.4-.4.9l5.3 23.2v.2a1.44 1.44 0 0 0 1.1.9h10.2c.4 0 .7-.4.7-.8l-.2-.9-5.2-22.6c-.1-.5-.7-1-1.2-1 0 .1-10.3.1-10.3.1z" fill="#7f7f7f"/><path d="M229.2 191l3 9.2v.2c.2.3.6.6 1.1.6h10.2c.4 0 .7-.3.7-.5l-.2-.6-2.1-6.4c-.8 0-2.6-.1-3.4-.2-.1 0 .2-.5-.3-1.1-.4-.6-1.1-.9-1.1-.9s.5-1 0-1.8c-.5-1-1.8-1.1-2.4-.8-.4.2-3.7 1.5-5.5 2.3z" opacity=".2"/><path d="M231.9 181.5c.1.8.9 1.5 1.8 1.5s1.4-.7 1.3-1.5-.9-1.5-1.8-1.5c-.8 0-1.4.6-1.3 1.5z" fill="#4d4d4d"/><path d="M238.3 187.7c-1.4 1-6.5 3.4-7.6 4.2s-.4 3.7 1.6 2.7l7-3.7c1-.8.4-4.2-1-3.2z" class="h"/><path d="M231.4 194.8c.3 0 .5 0 .9-.2l7-3.7c.2-.1.3-.4.4-.6-.2-.1-.5-.1-.8.2-1.5 1-5.9 3.2-7.1 4-.2 0-.4.2-.4.3z" class="m"/><path d="M238.9 190.7c-1.5 1-5.9 3.2-7.1 4s-.2 3.8 1.8 2.8 5.3-2.8 6.4-3.7c1-.8.4-4.1-1.1-3.1z" class="h"/><path d="M232.3 197.7c.3.1.7.1 1.2-.1 2-1 5.3-2.8 6.4-3.7.2-.1.3-.3.4-.6-.2-.1-.5 0-.7.2-1.5 1-5.7 3-6.9 3.8a.78.78 0 0 0-.4.4z" class="m"/><path d="M239.6 193.7c-1.5 1-5.7 3-6.9 3.8s-.2 4.1 1.8 3.1 5.1-2.9 6.2-3.8c1.1-.8.4-4.1-1.1-3.1z" class="h"/><path d="M233.6 200.8c.3 0 .6 0 .9-.2 2-1 5.1-2.9 6.2-3.8a1.38 1.38 0 0 0 .3-.4c-.2 0-.4 0-.6.2-1.5 1-5.2 2.9-6.4 3.7-.2.2-.3.3-.4.5z" class="m"/><path d="M240.4 196.9c-1.5 1-5.3 2.9-6.4 3.7-1.2.8.1 3.8 2 2.9 1.9-1 4.4-2.8 5.4-3.6 1.1-.9.4-3.9-1-3z" class="h"/><path d="M233.7 202.5c.4.8 1.2 1.5 2.3.9 1.9-1 4.4-2.8 5.4-3.6.5-.4.6-1.2.5-1.9 0 0 0 1-.7 1.5-.6.5-5.1 3.7-5.7 3.8s-1.3 0-1.8-.7z" class="l"/><path d="M237.8 206.3c.8 3.8 6.2 25.7 6.2 25.7 2.9 9.5 14.4 2.9 13.5-1.2-.1-.4-.2-.8-.4-1.3-.9 1-3.1 3.4-5.7 4.5-3.5 1.5-5.2 0-7.1-6.7-1.5-5.5-4.6-18.5-5.8-23.3-.6.7-.9 1.4-.7 2.3z" opacity=".1"/><path d="M300.9 186.4l7.4 2.1c6.5 2.2 6.4 7.5 4.5 15.5-.9 3.6-3.9 12.2-7.3 16.5-4.5 5.7-4.7 13.6-5.4 27.9a3.08 3.08 0 0 1-3.1 2.9h-39.3c-1.9 0-1.4-1.8-.5-3.5 10.4-20.7 4.6-33.9 8.1-49.6 1.1-5.1 5.5-9.4 8.6-10.1 3.1-.6 9.7-1.7 9.7-1.7h17.3z" class="i"/><path d="M256.4 250.2v.6s0 .1.1.1c0 0 0 .1.1.1l.2.2c.1 0 .1.1.2.1.2.1.4.1.6.1H297c.3 0 .6 0 .9-.1.1 0 .2-.1.3-.1h0c.1 0 .1-.1.2-.1s.1-.1.2-.1.1-.1.2-.1c.3-.2.6-.5.8-.8 0-.1.1-.1.1-.2s.1-.1.1-.2.1-.1.1-.2c0 0 0-.1.1-.1v-.1c.1-.2.1-.3.1-.5v-1.3l.5-9.8c0-.4.1-.8.1-1.1l.2-2 .8-5.2.5-2.1c.1-.3.2-.5.2-.8.2-.5.3-1 .5-1.5 0-.1.1-.2.1-.4.1-.2.2-.5.3-.7.1-.1.1-.2.2-.3.1-.2.2-.4.3-.7.1-.1.1-.2.2-.3.2-.3.4-.6.5-.9.1-.1.1-.2.2-.3s.2-.3.3-.4.2-.3.3-.4.1-.2.2-.3.2-.2.2-.3c.1-.1.1-.2.2-.3v-.3l.1-.1v-.2c0-.1.1-.1.1-.2s.1-.1.1-.2c.2-.2.3-.5.5-.8.1-.1.2-.3.3-.4.2-.3.4-.6.5-1 .1-.2.2-.4.3-.5l.6-1.3c.1-.2.1-.3.2-.5.2-.5.5-1 .7-1.5.1-.3.2-.6.4-.9l.3-.9c0-.1.1-.2.1-.3.1-.2.2-.5.3-.7s.2-.4.3-.7c0-.1.1-.2.1-.3l.3-1-10.6-1.4s-2.7 20.9-4.9 23.6c-5.3 6.5-12.9 6.5-24 6.5-4 0-7.9-.3-10.3-.8-.9 3.5-2.3 7.2-4.3 11.2-.1.2-.2.4-.3.5s-.1.2-.2.4c-.2.4-.3.7-.4 1.1 0 .1 0 .1-.1.2v.5c.4.4.4.5.4.5z" opacity=".1"/><path d="M284.7 195.7c.9-.7 2-2.2 2-3.4h-4.9c-.2 1.1-.3 2.3-.1 3.4-3.4 14.1-13.8 42.5-13.8 42.5l3.4 3.5 5.7-3.5c3.9-14.3 6.3-27.9 7.7-42.5z" fill="#4c517a"/><path d="M284.1 192.3s-2.9 1.4-4 4.5c0 0-1.7-4.8.8-10.3l3.2-1.6s-2.2 5.2 0 7.4z" fill="#e6e6e6"/><path d="M296.9 178c0 4.8 1.5 8.4 1.5 8.4s-2.7 6-14.4 6c-2.3 0-.5-6-.5-6l2.8-8.4h10.6z" fill="#eb9d86"/><path d="M271.6 161.5s2.1 13.7 3.6 18.2c.9 2.8 2.3 5.3 5.9 5.3 5.7 0 11.8-3.7 13.5-4.8 4.2-2.7 5-6.3 5.7-11.7.4-2.9.9-6.1.8-8.2-.3-4.7-1.8-15.4-16.1-14.6-14.6.9-14.2 9.7-13.4 15.8z" class="h"/><g fill="#3a3a3a"><path d="M285.2 145c5-.2 12.4 2.1 14.6 6.9 7.1 7.2 2.8 20-2 25.5-.4.4-1 .3-1.2-.2l-1.4-3.6c-1 .1-2.5-.7-2.5-1.8l-.4-6.4c-.2-2.8-1.8-5-4.5-4.9l-15.6.9c-1.3.1-2.2-1-2.3-2.3-.5-4.3 2.1-13.4 15.3-14.1z"/><path d="M269.8 159.2c.1 1.3 1 2.4 2.3 2.3l15.6-.9c2.7-.2 4.3 2 4.5 4.9l.4 6.4c.1 1 1.6 1.8 2.5 1.8l1.4 3.6c.2.5.9.6 1.2.2 3.3-3.7 6.3-10.7 5.7-17.1-4.8.4-7.8-1.1-9.5-2.5-1.5-1.2-3.5-1.7-5.5-1.5-7.2 1-15.3.9-18.6.7v2.1z"/></g><path d="M293.8 168l-.2 7.3c1.5.4 6.2 1.3 6.4-6.4.1-3.4-4-4.9-5.7-2.6-.3.6-.5 1.1-.5 1.7z" class="h"/><path d="M284.1 192.3s1.6 2.7 1.5 4.8c0 .3 11.4-1.7 15.3-10.8l-3.6-4c0 .1-2.2 7.7-13.2 10z" fill="#e6e6e6"/><path d="M225.9 328.9h-3.1l2.3-1.3z" fill="#575757"/><path d="M231.3 328.9h-5.5c-.2 0-.3-.1-.4-.3l-.4-1.1-1.3 1a1.69 1.69 0 0 1-1 .3h-20.6c-.8 0-1.4-.6-1.4-1.4V326c0-.8.5-1.5 1.2-1.7 2.6-1 8.5-3.5 11-5.8 3.3-3.1 5.6-6.2 5.6-6.2h12l2.1 15.1c.3.8-.4 1.5-1.3 1.5z" fill="#303030"/><path d="M200.8 326v1.6c0 .8.6 1.4 1.4 1.4h20.6a1.69 1.69 0 0 0 1-.3l1.3-1 .4 1.1c.1.2.2.3.4.3h5.4c.9 0 1.5-.8 1.4-1.6l-2.1-15.1h-1.4c-.6 1.8-2.4 6.5-5.3 9-3.6 3.1-7.1 4.6-9.8 4.6H203c-1.4 0-2.1.1-2.1-.6 0 .1 0 .1-.1.2v.3c0 0 0 0 0 .1z" class="g"/><g fill="#363636"><path d="M231.4 315.7h-16c-.7 0-1.1-.6-1-1.2l8.3-52.9h19.5l-9.7 53.3c-.1.5-.5.8-1.1.8z"/><path d="M271.3 274.9h-37.5c-6.2 0-11.3-5-11.3-11.1h0c0-6.1 5-12.5 11.3-12.5h47.1s2.3 5.7 2.3 11.9v.2c-.1 6.4-5.4 11.5-11.9 11.5z"/></g><path d="M226.1 315.7h5.3c.5 0 1-.3 1.1-.8l7.3-40h31.5c6.5 0 11.8-5.1 11.9-11.5v-.2c0-6.2-2.3-11.9-2.3-11.9s2.1 18.9-11.8 18.9h-30c-2.5 0-4.6 1.7-5 4.1l-8 41.4z" class="g"/><path d="M249.6 328.9h-3l2.2-1.3z" fill="#575757"/><path d="M255.1 328.9h-5.5c-.2 0-.3-.1-.4-.3l-.4-1.1-1.3 1a1.69 1.69 0 0 1-1 .3H226c-.8 0-1.4-.6-1.4-1.4V326c0-.8.5-1.5 1.2-1.7 2.6-1 8.5-3.5 11-5.8 3.3-3.1 5.6-6.2 5.6-6.2h12l2.1 15.1c.1.8-.5 1.5-1.4 1.5z" fill="#303030"/><path d="M224.6 326v1.6c0 .8.6 1.4 1.4 1.4h20.6a1.69 1.69 0 0 0 1-.3l1.3-1 .4 1.1c.1.2.2.3.4.3h5.4c.9 0 1.5-.8 1.4-1.6l-2.1-15.1H253c-.6 1.8-2.4 6.5-5.3 9-3.6 3.1-7.1 4.6-9.8 4.6h-11.1c-1.4 0-2.1.1-2.1-.6 0 .1 0 .1-.1.2v.3c0 0 0 0 0 .1z" class="g"/><g fill="#404040"><path d="M255.2 315.7h-16c-.7 0-1.1-.6-1-1.2l8.3-52.9H266l-9.7 53.3c-.2.5-.6.8-1.1.8z"/><path d="M287.4 274.9h-30c-6.2 0-11.3-5-11.3-11.1h0c0-6.1 5-12.5 11.3-12.5H297s2.3 5.7 2.3 11.9v.2c0 6.4-5.4 11.5-11.9 11.5z"/></g><path d="M249.9 315.7h5.3c.5 0 1-.3 1.1-.8l7.3-40h23.9c6.5 0 11.8-5.1 11.9-11.5v-.2c0-6.2-2.3-11.9-2.3-11.9h-5.3c1.6 4.5 3 18.9-6.5 18.9h-22.4c-2.5 0-4.6 1.7-5 4.1l-8 41.4z" class="g"/><path d="M299.6 328.9h5.2l1.7-8.8h-8.6z" fill="#403c3c"/><path d="M297.9 320.1h8.5l-.2 1.2c-3.4 0-6 3-5.4 6.3l.2 1.2h-1.5l-1.6-8.7z" class="g"/><g class="k"><use xlink:href="#C" x="99.3"/><use xlink:href="#D" x="99.3"/></g><path d="M366.1 328.9h5.3l1.6-8.8h-8.5z" fill="#403c3c"/><path d="M364.5 320.1h8.5l-.2 1.2c-3.4 0-6 3-5.4 6.3l.2 1.2h-1.5l-1.6-8.7z" class="g"/><use xlink:href="#E" x="99.3" class="j"/><path d="M292.8 251.1v1.2c0 4 3.3 7.3 7.4 7.3h0c4.1 0 7.4-3.3 7.4-7.3v-1.9a3.12 3.12 0 0 1 3.1-3.1h11.5c.7 0 1.3-.5 1.7-1.2h-26c-2.8-.1-5.1 2.2-5.1 5z" class="g"/><g class="i"><path d="M314.4 194.3L323 233c2.4 9.3-12.1 15.7-15.4 4.4-3.3-11.5-8.1-31.9-9.7-38.6-1.2-5.1 4.1-12.2 9.4-10.7 2.9.9 6 2.6 7.1 6.2z"/><path d="M317.9 242.8L289 253c-3.8 1.1-9-9-3.6-11.1 7-2.7 20.2-9.4 26.3-12.3 5-2.5 13 10.1 6.2 13.2z"/></g><path d="M304.8 232.8c2.2-.3 5.4-.5 8 .6-.2-.1-2.8-1.9-7-2.1.1.3.2.6.2.9-.3.2-.7.4-1.2.6zm-18.9 18.9c1 1 2.1 1.5 3.1 1.2 3.3-1 23.2-8.1 27.9-9.8a12.59 12.59 0 0 1 1-.3c3.5-1.5 6.2-5.3 5.1-9.7-.2-.8-.6-2.5-1.1-4.7 0 .4.7 6.9-.6 9.4-1.3 2.6-5 3.9-8.1 5-2.3.7-18.9 6.2-27.3 8.9z" opacity=".1"/><path d="M268.6 256.9c.3.7.8 1.9 1.1 2.2.6.8 1.5.3 1.9.1.1-.1.2-.1.2-.1s0 .2.2.4.5.3 1.1.3c.9 0 1.4-.3 1.6-.4.1-.1.2-.1.2-.1l.1.1c.1.2.5.5 1.3.5.7 0 1.1-.2 1.4-.3.1-.1.2-.1.2-.1s.2.4 1.3.4c1 0 1.5-.7 1.3-2l-.5-1.8c0-.1.2-1.3.5-2.2.1-.3.3-.7.7-.6.5.1 1.4 0 1.9 0 1 0 2.5-.1 3.9-.8.3-.2.6-.7.8-.8.3-.1.5-.3.9-.5.8-.4 1.5-2.3 0-5.1-1.7-3.3-3.9-3.2-4.5-2.7-.3.2-2.8.2-5.3.7-2.6.4-7.4 3.6-7.9 4.3-.4.5-1.2 1.9-1.9 2.9-.2.4-.4.9-.4 1.4l-.3 2.8c-.1.5 0 1 .2 1.4z" class="h"/><path d="M270.6 256.9l.9 2.1c0 .1.1.2.1.2.1-.1.2-.1.2-.1s0 .2.2.4l-1.1-2.6c-.1-.3-.2-.6-.1-.9l.3-3.1c0-.2.1-.4.1-.6l.9-2.3-1.1 2c-.1.3-.2.5-.2.8l-.3 3.1c-.1.3 0 .7.1 1zm3 .1l.9 2.1c.1.1.1.2.2.3.1-.1.2-.1.2-.1l.1.1-1-2.4c-.1-.3-.2-.6-.1-.9l.3-3.1c0-.2.1-.4.1-.6l.9-2.3-1.1 2-.3.8-.3 3.1c-.1.4 0 .7.1 1zm2.9 0l.9 2.1c.1.1.1.2.2.3l.1.1c.1-.1.2-.1.2-.1l-1-2.4c-.1-.3-.2-.6-.1-.9l.3-3.1c0-.2.1-.4.1-.6l.9-2.3-1.1 2c-.1.3-.2.5-.2.8l-.3 3.1c-.2.4-.2.7 0 1zm2.9-.8c.2.6.7 2.8.5 3.4h0c.5-.3.7-.9.6-1.8l-.5-1.8c0-.1.2-1.3.5-2.2.1-.3.3-.7.7-.6.5.1 1.4 0 1.9 0 1 0 2.5-.1 3.9-.8.3-.2.6-.7.8-.8.3-.1.5-.3.9-.5.2-.1.4-.3.5-.5-.1 0-1.5.6-1.8.8s-1.1.9-3.8.9c-2.8 0-3.5.1-3.7 1-.3 1-.7 2.3-.5 2.9z" class="l"/><path d="M303.7 324c0 2.5-2 4.4-4.4 4.4H263c-2.5 0-4.4-2-4.4-4.4v-25.8c0-2.5 2-4.4 4.4-4.4h36.3c2.5 0 4.4 2 4.4 4.4V324z" fill="#c1c1c1"/><path d="M299.2 329H263a4.91 4.91 0 0 1-4.9-4.9v-25.8a4.91 4.91 0 0 1 4.9-4.9h36.3a4.91 4.91 0 0 1 4.9 4.9V324a4.95 4.95 0 0 1-5 5zM263 294.3c-2.2 0-3.9 1.8-3.9 3.9V324c0 2.2 1.8 3.9 3.9 3.9h36.3c2.2 0 3.9-1.8 3.9-3.9v-25.8c0-2.2-1.8-3.9-3.9-3.9H263z" fill="#666"/><path d="M283.8 310.6h-4.4l-3.3-2.4h-11.7v-.4h11.8l3.3 2.4h4.2l2.9-2.4h11.3v.4h-11.2z"/><path d="M285 300.4h-7.3c-1.7 0-3.2-1.4-3.2-3.2v-4.6c0-1.7 1.4-3.2 3.2-3.2h7.3c1.7 0 3.2 1.4 3.2 3.2v4.6c-.1 1.8-1.5 3.2-3.2 3.2zm-7.4-9.7c-1.1 0-2 .9-2 2v4.6c0 1.1.9 2 2 2h7.3c1.1 0 2-.9 2-2v-4.6c0-1.1-.9-2-2-2h-7.3z" fill="#c1c1c1"/><path d="M285 300.9h-7.3c-2 0-3.7-1.6-3.7-3.7v-4.6c0-2 1.6-3.7 3.7-3.7h7.3c2 0 3.7 1.6 3.7 3.7v4.6c-.1 2.1-1.7 3.7-3.7 3.7zm-7.4-10.9a2.69 2.69 0 0 0-2.7 2.7v4.6a2.69 2.69 0 0 0 2.7 2.7h7.3a2.69 2.69 0 0 0 2.7-2.7v-4.6a2.69 2.69 0 0 0-2.7-2.7h-7.3zm7.4 9.8h-7.3c-1.4 0-2.5-1.1-2.5-2.5v-4.6c0-1.4 1.1-2.5 2.5-2.5h7.3c1.4 0 2.5 1.1 2.5 2.5v4.6c0 1.4-1.2 2.5-2.5 2.5zm-7.4-8.6a1.54 1.54 0 0 0-1.5 1.5v4.6a1.54 1.54 0 0 0 1.5 1.5h7.3a1.54 1.54 0 0 0 1.5-1.5v-4.6a1.54 1.54 0 0 0-1.5-1.5h-7.3z" fill="#666"/><g fill="#e2e25a"><path d="M215.3 142h40.1v22.9h-40.1z"/><path d="M252.2 170.8l-6.5-5.9h6.5z"/></g><defs ><path id="B" d="M121.3 134.8l-3.5 4.6v.1l5.6-.7v2.5l-5.6-.7v.1l3.6 4.5-2.3 1.3-2.2-5.2h-.1l-2.4 5.2-2.1-1.3 3.5-4.5v-.1l-5.5.7v-2.5l5.5.7v-.1l-3.5-4.5 2.3-1.3 2.3 5.2h.1l2.3-5.2 2 1.2z"/><path id="C" d="M197.7 320.1h77c2.3 0 4.1-1.8 4.1-4.1v-64.5c0-3.1-2.5-5.5-5.6-5.5h-74c-3.1 0-5.6 2.5-5.6 5.5V316c-.1 2.3 1.8 4.1 4.1 4.1z"/><path id="D" d="M197.7 320.1h10.5c2.3 0 4.1-1.8 4.1-4.1v-64.5c0-3.1-2.5-5.5-5.6-5.5h-7.5c-3.1 0-5.6 2.5-5.6 5.5V316c-.1 2.3 1.8 4.1 4.1 4.1z"/><path id="E" d="M211.1 253.3v64c0 1.6 1.3 2.8 2.9 2.8h61.1c2.1 0 3.7-1.6 3.7-3.7V251c0-1.2-1-2.2-2.3-2.2h-60.9a4.48 4.48 0 0 0-4.5 4.5z"/></defs></svg>