<svg id="shopping-cart" xmlns="http://www.w3.org/2000/svg" width="21.481" height="18.88" viewBox="0 0 21.481 18.88">
  <path id="Path_140" data-name="Path 140" d="M6.965,12.587h11.37a.627.627,0,0,0,.6-.457l2.517-8.811a.628.628,0,0,0-.6-.8H5.512L5.062.493A.629.629,0,0,0,4.447,0H.629a.629.629,0,0,0,0,1.259H3.942L6.215,11.485a1.887,1.887,0,0,0,.75,3.619h11.37a.629.629,0,0,0,0-1.259H6.965a.629.629,0,1,1,0-1.259Zm0,0" fill="#9e9e9e"/>
  <path id="Path_141" data-name="Path 141" d="M151,361.892A1.888,1.888,0,1,0,152.888,360,1.89,1.89,0,0,0,151,361.892Zm0,0" transform="translate(-144.665 -344.9)" fill="#9e9e9e"/>
  <path id="Path_142" data-name="Path 142" d="M362,361.892A1.888,1.888,0,1,0,363.892,360,1.89,1.89,0,0,0,362,361.892Zm0,0" transform="translate(-346.816 -344.9)" fill="#9e9e9e"/>
</svg>
